<svg xmlns="http://www.w3.org/2000/svg" width="99" height="56" fill="none"><path fill="#fff" fill-rule="evenodd" d="M51.268 8c7.849 0 14.214 6.267 14.214 14 0 7.73-6.365 14-14.214 14-7.852 0-14.216-6.27-14.216-14 0-7.733 6.364-14 14.216-14Zm8.63 18.05c0-3.24-3.489-4.808-4.974-5.271 2.125-.808 3.594-2.17 3.589-4.313-.007-3.053-3.772-3.573-5.306-3.573h-.68c.062-1.512.914-1.56 2.013-1.56v-.767h-6.817v.706c1.127 0 1.97.11 2.03 1.621l-2.026-.001h-.001c-2.45-.002-4.843-.004-5.081.001v.772c1.628 0 2.489.134 2.489 2.281v12.197c0 1.928-.568 2.178-2.486 2.178l-.01.828h10.57c3.63 0 6.69-1.903 6.69-5.1Zm-6.843-4.734c2.15 1.023 3.918 2.711 3.918 5.247 0 2.163-2.228 3.494-4.446 3.496v-7.813c-.617.142-1.735.287-2.775.323v7.49c-.907-.016-1.838-.335-1.838-1.86V13.8l4.606-.002c1.75 0 3.307.966 3.307 2.99 0 1.578-.974 2.938-3.3 3.614v-5.932h-2.775v6.342l-.238.014c-.202.013-.41.027-.66.035l-.387.946a23.697 23.697 0 0 0 4.588-.49ZM47.722 33.44c1.128 0 1.97-.108 2.03-1.619h2.776c.06 1.51.912 1.56 2.012 1.56v.765h-6.818v-.706ZM26.405 40.76v4.847h-.175a994.105 994.105 0 0 0-3.532-4.055c-.455-.526-.804-.94-1.3-1.567-.016.326-.016.66-.015 2.165v.592c0 2.403 0 2.578.826 2.578v.216l-.073-.001c-.437-.009-.837-.017-1.217-.017-.313 0-.473.004-.685.01-.087.003-.182.006-.3.008h-.009c-.195-.01-.38-.018-.879-.018-.513 0-1.024.009-1.322.018v-.221c.814 0 .762-.137.108-1.843l-.036-.094h-2.629c-.724 1.79-.774 1.937.07 1.937v.221a45 45 0 0 0-1.254-.018c-.493 0-.853.009-1.078.018v-.221c.57 0 .653-.145 1.64-2.562L16.475 38h.186l1.861 4.753c.894 2.266 1.014 2.535 1.486 2.56.59.03.59-.426.59-2.547v-4.694h.176a746.206 746.206 0 0 0 3.56 4.143c.457.52.755.878 1.27 1.533.018-.33.018-.678.018-2.286v-.701c0-2.261 0-2.438-.852-2.438v-.215c.39.01.806.02 1.194.02.4 0 .767-.01 1.133-.019h.041v.214c-.733.007-.733.177-.733 2.438Zm60.958 2.618h2.63l.034.09c.655 1.71.707 1.847-.107 1.847v.221c.297-.01.808-.018 1.322-.018.506 0 .859.009 1.056.018v-.221c-.555 0-.63-.15-1.58-2.562L88.859 38h-.187l-1.932 4.753c-.934 2.293-1.058 2.56-1.555 2.56-.721 0-.737-.272-.737-2.56v-2.015c0-2.26.002-2.408.782-2.408v-.222a41.21 41.21 0 0 1-2.496 0v.222c.811 0 .811.15.811 2.41v2.023c0 2.403 0 2.552-.845 2.552v.221a41.4 41.4 0 0 1 2.505 0c.227-.01.482-.018.976-.018.476 0 .908.009 1.253.018v-.221c-.844 0-.795-.147-.07-1.937Zm-39.691 2.229V40.76c0-2.261 0-2.43.733-2.438v-.215l-.048.001c-.365.01-.728.019-1.126.019-.388 0-.804-.01-1.194-.02v.215c.85 0 .85.177.85 2.438l.001.711v.001c0 1.599 0 1.946-.017 2.275a33.09 33.09 0 0 0-1.27-1.532 684.298 684.298 0 0 1-3.562-4.143h-.174v4.669c0 2.403 0 2.58-.836 2.58v.214l.17-.004a36.974 36.974 0 0 1 2.21.003l.067.001v-.217c-.827 0-.827-.174-.827-2.578v-.582c0-1.513 0-1.847.016-2.174.496.627.844 1.041 1.3 1.567.685.78 1.766 2.02 3.532 4.055h.175Zm8.19-3.988c0 1.316-.48 2.393-1.415 3.119-.709.548-1.606.802-2.916.802-.118 0-.278-.004-.458-.01a28.857 28.857 0 0 0-1.68-.001l-.284.005v-.22c.851 0 .851-.17.851-2.558v-2.015c0-2.261 0-2.395-.813-2.395v-.207c.16 0 .368-.003.582-.005.227-.003.462-.006.654-.006.19 0 .358-.005.543-.011.224-.007.473-.014.813-.014 1.21 0 1.911.178 2.572.552.967.545 1.551 1.638 1.551 2.964Zm-.97.063c0-1-.425-1.865-1.106-2.326-.486-.329-1.229-.507-2.025-.507-.379 0-.562.013-.899.037v5.6c0 .192.045.25.202.274.184.033.413.042.647.042.88 0 1.6-.213 2.153-.674.67-.553 1.029-1.415 1.029-2.446Zm32.727 1.006h2.112l-.01-.034-.4-1.089c-.523-1.42-.58-1.575-.612-1.718-.045.136-.103.285-.61 1.59l-.471 1.217-.01.034Zm-5.66.917c0 1.13-.832 2.01-2.335 2.01-.613 0-1.255-.16-1.595-.321.043-.431.068-1.053.077-1.692h.22c.013.497.148.817.377 1.011.22.189.543.266.922.266.83 0 1.395-.452 1.395-1.15 0-.44-.167-.79-.59-1.12a13.797 13.797 0 0 0-.999-.687c-.805-.523-1.255-1.115-1.255-1.942 0-1.085.888-1.926 2.196-1.926.458 0 .956.083 1.31.2a30.077 30.077 0 0 0-.06 1.626h-.218c.01-.451-.078-.691-.293-.865-.167-.14-.453-.227-.776-.227-.702 0-1.237.419-1.237 1.1 0 .378.182.717.509.998.251.206.557.43 1.022.728.748.484 1.33 1.044 1.33 1.99ZM73.2 40.74v2.015c0 2.41 0 2.559-.758 2.559v.221c.453-.01 1.124-.018 2.012-.018.889 0 1.846.009 2.525.018 0-.514.032-1.077.058-1.517v-.003l.004-.07h-.21c-.084.765-.352.83-.89.84-.486.005-.905.002-1.335 0h-.115c-.368-.003-.387-.024-.387-.395v-2.308h1.14c.849 0 1.075.03 1.133.563h.202c-.02-.305-.038-.618-.038-.942 0-.277.018-.565.038-.814h-.204c-.063.469-.301.485-1.157.485h-1.114v-2.547h1.517c.793 0 .955.145.988.92h.212c.005-.564.033-1.121.073-1.64-.654.01-1.607.02-2.507.02-.723 0-1.289-.01-1.713-.017l-.185-.003v.222c.711 0 .711.15.711 2.41Zm-9.912 1.026c0-1.7-1.273-2.963-2.9-2.963-1.643 0-2.907 1.263-2.907 3.024 0 1.815 1.28 3.04 2.888 3.04 1.624 0 2.919-1.205 2.919-3.101Zm-2.97 3.87c2.316 0 3.965-1.69 3.965-3.925 0-2.157-1.654-3.676-3.814-3.676-2.258 0-3.993 1.556-3.993 3.832 0 2.171 1.71 3.768 3.841 3.768ZM39.44 40.737v2.015c0 2.41 0 2.562.863 2.562v.221c-.352-.01-.827-.018-1.312-.018-.511 0-.897.009-1.298.018v-.221c.844 0 .844-.15.844-2.552v-2.022c0-2.261 0-2.41-.812-2.41v-.223a41.271 41.271 0 0 0 2.498 0v.222c-.78 0-.783.147-.783 2.408Zm-10.683.003v2.015c0 2.41 0 2.559-.844 2.559v.221c.375-.01.849-.018 1.338-.018.422 0 .74.007 1.109.015l.154.003v-.221c-.853 0-.855-.147-.855-2.444l.02-.936 1.743 2.018.104.122c.893 1.047 1.057 1.24.272 1.24v.221l.193-.003c.406-.008.753-.015 1.167-.015.49 0 .894.009 1.178.018v-.221c-.513 0-.718-.15-1.835-1.413l-2.008-2.256 1.674-1.89.322-.358c.836-.93.96-1.068 1.466-1.068v-.222c-.274.01-.68.02-1.089.02-.307 0-.574-.006-.897-.013l-.318-.007v.222c.685 0 .625.18-.44 1.398L29.66 41.5v-.859c0-2.158.017-2.31.776-2.31v-.222h-.003c-.371.01-.757.02-1.23.02-.476 0-.906-.01-1.257-.02v.222c.812 0 .812.15.812 2.41Zm-11.22 1.947h-2.113l.01-.034.545-1.409c.437-1.128.492-1.269.535-1.398.032.144.089.298.614 1.723l.399 1.084.01.034Zm-5.295.752c0-.745-.547-1.133-1.002-1.26a3.346 3.346 0 0 0-.879-.11 4.92 4.92 0 0 0-.382.013v2.318c0 .285.014.32.13.364.127.044.339.05.493.05.31 0 .667-.088.856-.176.452-.19.784-.571.784-1.199Zm-1.732-4.636c.832 0 1.409.42 1.409 1.26 0 .75-.519 1.11-.974 1.241a2.512 2.512 0 0 1-.676.083c-.096 0-.2-.005-.274-.008l-.016-.001v-2.546l.038-.004c.105-.01.263-.025.493-.025Zm2.66 4.667c0 .7-.315 1.25-.775 1.577-.486.342-1.083.498-1.938.498-.183 0-.375-.008-.564-.015a14.515 14.515 0 0 0-.532-.013c-.16 0-.387.004-.651.009l-.411.007v-.22c.814 0 .814-.148.814-2.558v-2.015c0-2.261 0-2.41-.727-2.41v-.2c.18.002.418 0 .645-.001l.424-.002c.112 0 .244-.005.393-.01.188-.005.403-.012.631-.012.405 0 .802.047 1.078.126.674.185 1.285.745 1.285 1.737 0 .907-.695 1.581-1.384 1.694.957.124 1.712.838 1.712 1.808Zm57.745 2.136V40.76c0-2.261 0-2.43.731-2.438v-.215l-.043.001c-.366.01-.731.019-1.13.019-.39 0-.803-.01-1.193-.02v.215c.851 0 .851.177.851 2.438v.601c0 1.694 0 2.05-.018 2.386a32.193 32.193 0 0 0-1.268-1.532c-.69-.792-1.784-2.064-3.563-4.143h-.173v4.669c0 2.403 0 2.58-.836 2.58v.214c.057 0 .113-.002.168-.004.328-.007.607-.014.987-.014.379 0 .778.008 1.214.017l.076.001v-.217c-.827 0-.827-.174-.827-2.578v-.582c0-1.513 0-1.847.016-2.174.495.627.845 1.041 1.3 1.567.685.78 1.765 2.02 3.532 4.055h.176Z" clip-rule="evenodd"/></svg>