<?xml version="1.0" encoding="UTF-8"?>
<svg viewBox="0 0 20 20" xmlns="http://www.w3.org/2000/svg">
<path d="m10 0.25c5.3848 0 9.75 4.3652 9.75 9.75 0 5.3848-4.3652 9.75-9.75 9.75-5.3848 0-9.75-4.3652-9.75-9.75 0-5.3848 4.3652-9.75 9.75-9.75z" clip-rule="evenodd" fill="#00CE64" fill-rule="evenodd"/>
<path d="m5.578 9.1472c-0.39339-0.3993-1.0268-0.39481-1.4149 0.01002-0.38801 0.40482-0.38365 1.0567 0.00974 1.456l3.0446 3.0902c0.37156 0.3772 0.96241 0.397 1.3571 0.0457l6.9545-6.1909c0.4178-0.372 0.4636-1.0222 0.1021-1.4522-0.3615-0.43003-0.9934-0.47708-1.4112-0.10507l-6.2554 5.5686-2.3865-2.4223z" clip-rule="evenodd" fill="#fff" fill-rule="evenodd"/>
</svg>
