<svg width="120" height="24" viewBox="0 0 120 24" fill="none" xmlns="http://www.w3.org/2000/svg">
<path d="M110.855 23.8226V13.4773H112.764L118.647 20.9259H117.721V13.4773H120V23.8226H118.106L112.209 16.374H113.134V23.8226H110.855Z" fill="white"/>
<path d="M103.68 24C102.892 24 102.161 23.867 101.486 23.601C100.822 23.3349 100.242 22.9605 99.7485 22.4778C99.2642 21.995 98.8844 21.4285 98.609 20.7782C98.3431 20.1279 98.2102 19.4185 98.2102 18.65C98.2102 17.8815 98.3431 17.1721 98.609 16.5218C98.8844 15.8715 99.269 15.305 99.7628 14.8222C100.257 14.3395 100.836 13.9651 101.501 13.699C102.165 13.433 102.887 13.3 103.666 13.3C104.454 13.3 105.175 13.433 105.831 13.699C106.495 13.9651 107.07 14.3395 107.554 14.8222C108.048 15.305 108.433 15.8715 108.708 16.5218C108.983 17.1622 109.121 17.8716 109.121 18.65C109.121 19.4185 108.983 20.1328 108.708 20.793C108.433 21.4432 108.048 22.0098 107.554 22.4925C107.07 22.9655 106.495 23.3349 105.831 23.601C105.175 23.867 104.459 24 103.68 24ZM103.666 21.9605C104.112 21.9605 104.52 21.8817 104.891 21.724C105.27 21.5664 105.603 21.3398 105.888 21.0442C106.173 20.7486 106.391 20.3988 106.543 19.9949C106.704 19.5909 106.785 19.1426 106.785 18.65C106.785 18.1574 106.704 17.7091 106.543 17.3051C106.391 16.9012 106.173 16.5514 105.888 16.2558C105.612 15.9602 105.285 15.7336 104.905 15.576C104.525 15.4183 104.112 15.3395 103.666 15.3395C103.219 15.3395 102.806 15.4183 102.426 15.576C102.056 15.7336 101.728 15.9602 101.444 16.2558C101.159 16.5514 100.936 16.9012 100.774 17.3051C100.622 17.7091 100.546 18.1574 100.546 18.65C100.546 19.1328 100.622 19.5811 100.774 19.9949C100.936 20.3988 101.154 20.7486 101.429 21.0442C101.714 21.3398 102.047 21.5664 102.426 21.724C102.806 21.8817 103.219 21.9605 103.666 21.9605Z" fill="white"/>
<path d="M94.1631 23.8226V13.4773H96.4706V23.8226H94.1631Z" fill="white"/>
<path d="M87.4233 23.8226V15.4281H84.2326V13.4773H92.9215V15.4281H89.7308V23.8226H87.4233Z" fill="white"/>
<path d="M78.7805 24C78.0113 24 77.2943 23.8719 76.6296 23.6157C75.9744 23.3497 75.4046 22.9753 74.9203 22.4925C74.436 22.0098 74.0562 21.4432 73.7808 20.793C73.5149 20.1427 73.382 19.4284 73.382 18.65C73.382 17.8716 73.5149 17.1573 73.7808 16.507C74.0562 15.8568 74.436 15.2902 74.9203 14.8075C75.4141 14.3247 75.9886 13.9552 76.6439 13.699C77.2991 13.433 78.016 13.3 78.7947 13.3C79.6589 13.3 80.4375 13.4576 81.1307 13.7729C81.8334 14.0784 82.4222 14.5316 82.897 15.1326L81.4156 16.5514C81.0738 16.1474 80.6939 15.8469 80.2761 15.6499C79.8583 15.443 79.4025 15.3395 78.9087 15.3395C78.4434 15.3395 78.016 15.4183 77.6267 15.576C77.2374 15.7336 76.9002 15.9602 76.6154 16.2558C76.3305 16.5514 76.1073 16.9012 75.9459 17.3051C75.794 17.7091 75.718 18.1574 75.718 18.65C75.718 19.1426 75.794 19.5909 75.9459 19.9949C76.1073 20.3988 76.3305 20.7486 76.6154 21.0442C76.9002 21.3398 77.2374 21.5664 77.6267 21.724C78.016 21.8817 78.4434 21.9605 78.9087 21.9605C79.4025 21.9605 79.8583 21.862 80.2761 21.6649C80.6939 21.458 81.0738 21.1477 81.4156 20.7338L82.897 22.1526C82.4222 22.7536 81.8334 23.2118 81.1307 23.5271C80.4375 23.8424 79.6541 24 78.7805 24Z" fill="white"/>
<path d="M66.5748 17.645H71.375V19.5071H66.5748V17.645ZM66.7457 21.9013H72.1727V23.8226H64.4524V13.4773H71.9875V15.3986H66.7457V21.9013Z" fill="white"/>
<path d="M57.7126 23.8226V15.4281H54.522V13.4773H63.2108V15.4281H60.0202V23.8226H57.7126Z" fill="white"/>
<path d="M48.6109 24C47.8227 24 47.0915 23.867 46.4173 23.601C45.7526 23.3349 45.1733 22.9605 44.6795 22.4778C44.1952 21.995 43.8154 21.4285 43.54 20.7782C43.2741 20.1279 43.1412 19.4185 43.1412 18.65C43.1412 17.8815 43.2741 17.1721 43.54 16.5218C43.8154 15.8715 44.2 15.305 44.6938 14.8222C45.1876 14.3395 45.7668 13.9651 46.4316 13.699C47.0963 13.433 47.818 13.3 48.5967 13.3C49.3848 13.3 50.1065 13.433 50.7618 13.699C51.4265 13.9651 52.001 14.3395 52.4853 14.8222C52.9791 15.305 53.3637 15.8715 53.6391 16.5218C53.9144 17.1622 54.0521 17.8716 54.0521 18.65C54.0521 19.4185 53.9144 20.1328 53.6391 20.793C53.3637 21.4432 52.9791 22.0098 52.4853 22.4925C52.001 22.9655 51.4265 23.3349 50.7618 23.601C50.1065 23.867 49.3896 24 48.6109 24ZM48.5967 21.9605C49.043 21.9605 49.4513 21.8817 49.8216 21.724C50.2015 21.5664 50.5338 21.3398 50.8187 21.0442C51.1036 20.7486 51.322 20.3988 51.474 19.9949C51.6354 19.5909 51.7161 19.1426 51.7161 18.65C51.7161 18.1574 51.6354 17.7091 51.474 17.3051C51.322 16.9012 51.1036 16.5514 50.8187 16.2558C50.5433 15.9602 50.2157 15.7336 49.8359 15.576C49.456 15.4183 49.043 15.3395 48.5967 15.3395C48.1503 15.3395 47.7373 15.4183 47.3574 15.576C46.9871 15.7336 46.6595 15.9602 46.3746 16.2558C46.0897 16.5514 45.8665 16.9012 45.7051 17.3051C45.5532 17.7091 45.4772 18.1574 45.4772 18.65C45.4772 19.1328 45.5532 19.5811 45.7051 19.9949C45.8665 20.3988 46.085 20.7486 46.3603 21.0442C46.6452 21.3398 46.9776 21.5664 47.3574 21.724C47.7373 21.8817 48.1503 21.9605 48.5967 21.9605Z" fill="white"/>
<path d="M33.2936 23.8226V13.4773H37.6095C38.5021 13.4773 39.2713 13.63 39.917 13.9355C40.5628 14.231 41.0613 14.6596 41.4127 15.2212C41.764 15.7828 41.9397 16.4528 41.9397 17.2312C41.9397 17.9997 41.764 18.6647 41.4127 19.2263C41.0613 19.7781 40.5628 20.2018 39.917 20.4973C39.2713 20.7929 38.5021 20.9407 37.6095 20.9407H35.6011V23.8226H33.2936ZM39.6321 23.8226L37.1394 20.0687H39.6037L42.1249 23.8226H39.6321ZM35.6011 19.0342H37.4813C38.1935 19.0342 38.7253 18.8766 39.0766 18.5613C39.428 18.2361 39.6037 17.7928 39.6037 17.2312C39.6037 16.6597 39.428 16.2164 39.0766 15.9011C38.7253 15.5858 38.1935 15.4281 37.4813 15.4281H35.6011V19.0342Z" fill="white"/>
<path d="M23 23.8226V13.4773H27.3159C28.2086 13.4773 28.9778 13.63 29.6235 13.9355C30.2692 14.231 30.7678 14.6596 31.1191 15.2212C31.4705 15.7828 31.6461 16.4528 31.6461 17.2312C31.6461 17.9997 31.4705 18.6647 31.1191 19.2263C30.7678 19.7879 30.2692 20.2215 29.6235 20.5269C28.9778 20.8225 28.2086 20.9703 27.3159 20.9703H24.282L25.3075 19.8914V23.8226H23ZM25.3075 20.1574L24.282 19.0194H27.1878C27.9 19.0194 28.4317 18.8618 28.7831 18.5465C29.1344 18.2312 29.3101 17.7928 29.3101 17.2312C29.3101 16.6597 29.1344 16.2164 28.7831 15.9011C28.4317 15.5858 27.9 15.4281 27.1878 15.4281H24.282L25.3075 14.2902V20.1574Z" fill="white"/>
<path d="M57.4866 10.7L62.2436 0H64.683L69.4552 10.7H66.8633L62.9602 1.25343H63.9359L60.0176 10.7H57.4866ZM59.8651 8.40714L60.5207 6.527H66.0095L66.6803 8.40714H59.8651Z" fill="white"/>
<path d="M46.5759 10.7V0H48.6189L54.9158 7.704H53.9248V0H56.3642V10.7H54.3364L48.0243 2.996H49.0153V10.7H46.5759Z" fill="white"/>
<path d="M33.5 10.7L38.2569 0H40.6964L45.4686 10.7H42.8767L39.4605 2.43195L36.982 8.40714L36.0309 10.7H33.5ZM35.8785 8.40714L36.5341 6.527H42.0229L42.6937 8.40714H36.982H35.8785Z" fill="white"/>
<path d="M23 10.7V0H27.8484C29.0072 0 30.0287 0.224191 30.913 0.672572C31.7973 1.11076 32.4885 1.72729 32.9865 2.52214C33.4846 3.317 33.7336 4.25962 33.7336 5.35C33.7336 6.43019 33.4846 7.37281 32.9865 8.17786C32.4885 8.97271 31.7973 9.59433 30.913 10.0427C30.0287 10.4809 29.0072 10.7 27.8484 10.7H23ZM25.47 8.667H27.7265C28.438 8.667 29.0529 8.53452 29.5713 8.26957C30.0998 7.99443 30.5064 7.60719 30.791 7.10786C31.0858 6.60852 31.2332 6.02257 31.2332 5.35C31.2332 4.66724 31.0858 4.08129 30.791 3.59214C30.5064 3.09281 30.0998 2.71067 29.5713 2.44571C29.0529 2.17057 28.438 2.033 27.7265 2.033H25.47V8.667Z" fill="white"/>
<path fill-rule="evenodd" clip-rule="evenodd" d="M8.5 0C8.5 0 8.50001 0 8.5 0C5.46244 0 3 2.44623 3 5.46382V9.01909C1.1646 10.5782 0 12.9031 0 15.5C0 20.1946 3.80567 24 8.5 24C13.1943 24 17 20.1946 17 15.5C17 12.9032 15.8354 10.5783 14 9.01911V5.46382C14 2.44623 11.5376 0 8.5 0ZM11.7234 7.63252C10.7293 7.2248 9.64092 7 8.5 7C7.35909 7 6.27067 7.2248 5.27662 7.63251V5.46382C5.27662 3.91637 6.38154 2.62528 7.85037 2.32669C8.06021 2.28403 8.27747 2.26163 8.5 2.26163C8.61126 2.26163 8.72121 2.26723 8.82957 2.27816C9.35977 2.33165 9.85198 2.51279 10.2746 2.79016C11.1475 3.36311 11.7234 4.34665 11.7234 5.46382V7.63252ZM6.24861 13.5927C6.05649 13.6211 5.86483 13.6367 5.67387 13.6367C5.41732 13.6367 5.16193 13.6088 4.90701 13.5475C4.5033 13.4506 4.13806 13.2738 3.79437 13.0465C3.74964 13.0169 3.66737 12.9873 3.63678 13.0078C3.59669 13.0346 3.57444 13.1115 3.57351 13.1674C3.56934 13.4097 3.56986 13.6521 3.57038 13.8946L3.57073 14.1371L3.57096 15.3312C3.57096 16.1858 3.57096 17.0403 3.57004 17.8952C3.56957 18.0706 3.63052 18.2134 3.78047 18.3068C4.40874 18.6988 5.09611 18.8707 5.83586 18.8393C6.41223 18.8148 6.96889 18.6867 7.51397 18.5101C7.88233 18.3906 8.2488 18.2652 8.61532 18.1398C8.85203 18.0589 9.08876 17.9779 9.32603 17.8984C9.85488 17.7214 10.3928 17.577 10.9499 17.5241C11.7629 17.4479 12.5295 17.5947 13.2313 18.0282C13.3937 18.1284 13.4621 18.0883 13.4621 17.9024C13.4623 17.1125 13.4623 16.3226 13.4623 15.5327L13.4622 14.7554C13.462 14.2282 13.4618 13.7012 13.463 13.1744C13.4635 12.9689 13.3749 12.82 13.2053 12.7054C12.2869 12.0835 11.2848 12.0061 10.2477 12.2957C9.70746 12.4464 9.17959 12.6433 8.65305 12.8398L8.46276 12.9107C8.36655 12.9464 8.27053 12.9827 8.17452 13.0189C7.54673 13.256 6.91925 13.4929 6.24861 13.5927Z" fill="white"/>
</svg>
