<svg width="478" height="110" viewBox="0 0 478 110" fill="none" xmlns="http://www.w3.org/2000/svg">
<path fill-rule="evenodd" clip-rule="evenodd" d="M93.9999 101.299V60.4013H110.709C120.466 60.4013 126.366 66.1854 126.366 74.5403V74.6571C126.366 84.122 119.005 89.0298 109.833 89.0298H102.997V101.299H93.9999ZM102.997 81.026H110.125C114.623 81.026 117.252 78.3384 117.252 74.8329V74.716C117.252 70.6847 114.448 68.5229 109.949 68.5229H102.997V81.026ZM131.996 101.299V60.4014H150.691C155.891 60.4014 159.922 61.862 162.609 64.5496C164.888 66.8282 166.115 70.0416 166.115 73.8976V74.0145C166.115 80.6166 162.551 84.7648 157.351 86.6928L167.342 101.299H156.825L148.062 88.2119H140.993V101.299H131.996ZM140.993 80.2665H150.107C154.488 80.2665 157 77.9294 157 74.4823V74.3655C157 70.5094 154.313 68.5229 149.931 68.5229H140.993V80.2665ZM193.068 102C180.449 102 171.393 92.5937 171.393 80.967V80.8502C171.393 69.2235 180.566 59.7002 193.185 59.7002C205.805 59.7002 214.86 69.1067 214.86 80.7333V80.8502C214.86 92.4769 205.688 102 193.068 102ZM193.185 93.7038C200.43 93.7038 205.454 87.9781 205.454 80.967V80.8502C205.454 73.8391 200.313 67.9966 193.069 67.9966C185.824 67.9966 180.8 73.7223 180.8 80.7333V80.8502C180.8 87.8612 185.941 93.7038 193.185 93.7038ZM229.604 101.299V68.6978H217.159V60.4014H251.045V68.6978H238.601V101.299H229.604ZM256.908 101.299V60.4014H287.755V68.4056H265.847V76.7021H285.126V84.7063H265.847V93.2949H288.047V101.299H256.908ZM314.183 102C302.148 102 293.209 92.7106 293.209 80.967V80.8502C293.209 69.2235 301.973 59.7002 314.534 59.7002C322.246 59.7002 326.861 62.2709 330.659 66.0101L324.933 72.6122C321.778 69.7494 318.565 67.9966 314.475 67.9966C307.581 67.9966 302.615 73.7223 302.615 80.7333V80.8502C302.615 87.8612 307.465 93.7038 314.475 93.7038C319.149 93.7038 322.012 91.8342 325.225 88.9129L330.951 94.697C326.744 99.1958 322.07 102 314.183 102ZM346.629 101.299V68.6978H334.185V60.4014H368.07V68.6978H355.626V101.299H346.629ZM374.341 101.299V60.4014H383.339V101.299H374.341ZM412.396 102C399.776 102 390.721 92.5937 390.721 80.967V80.8502C390.721 69.2235 399.893 59.7002 412.513 59.7002C425.132 59.7002 434.188 69.1067 434.188 80.7333V80.8502C434.188 92.4769 425.015 102 412.396 102ZM412.513 93.7038C419.757 93.7038 424.782 87.9781 424.782 80.967V80.8502C424.782 73.8391 419.64 67.9966 412.396 67.9966C405.151 67.9966 400.127 73.7223 400.127 80.7333V80.8502C400.127 87.8612 405.268 93.7038 412.513 93.7038ZM441.161 101.299V60.4014H449.457L468.62 85.5827V60.4014H477.5V101.299H469.846L450.041 75.2998V101.299H441.161Z" fill="#108EE9"/>
<path fill-rule="evenodd" clip-rule="evenodd" d="M94 50.3V8.30002H110.379C123.579 8.30002 132.699 17.36 132.699 29.18V29.3C132.699 41.12 123.579 50.3 110.379 50.3H94ZM103.239 41.9601H110.379C117.939 41.9601 123.039 36.8601 123.039 29.4201V29.3001C123.039 21.8601 117.939 16.6401 110.379 16.6401H103.239V41.9601ZM133.26 50.3L151.259 8H159.779L177.778 50.3H168.118L164.278 40.88H146.519L142.679 50.3H133.26ZM149.819 32.7196H160.979L155.399 19.0996L149.819 32.7196ZM183.199 50.2998V8.2998H191.719L211.398 34.1598V8.2998H220.518V50.2998H212.658L192.319 23.5998V50.2998H183.199ZM225.938 50.3L243.938 8H252.457L270.457 50.3H260.797L256.957 40.88H239.198L235.358 50.3H225.938ZM242.498 32.7196H253.657L248.078 19.0996L242.498 32.7196Z" fill="#108EE9"/>
<path fill-rule="evenodd" clip-rule="evenodd" d="M0 75.0001C0 55.6705 15.6704 40.0001 35 40.0001C54.3296 40.0001 70 55.6705 70 75.0001C70 94.3306 54.3296 110 35 110C15.6704 110 0 94.3306 0 75.0001ZM25.7296 67.1466C24.9385 67.2636 24.1493 67.3279 23.363 67.3279C22.3066 67.3279 21.255 67.2128 20.2053 66.9605C18.543 66.5615 17.0391 65.8335 15.6239 64.8973C15.4397 64.7755 15.1009 64.6537 14.975 64.7381C14.8099 64.8484 14.7183 65.1649 14.7145 65.3951C14.6916 66.7255 14.703 68.0568 14.703 69.3882C14.703 71.0274 14.704 72.6657 14.704 74.3049C14.704 77.8242 14.704 81.3424 14.7002 84.8626C14.6982 85.5849 14.9492 86.1728 15.5666 86.5575C18.1536 88.1718 20.984 88.8796 24.03 88.7501C26.4033 88.6494 28.6954 88.1219 30.9399 87.3948C33.4362 86.5843 35.9116 85.7095 38.4013 84.876C40.5789 84.147 42.7938 83.5524 45.0878 83.3346C48.4354 83.021 51.5921 83.6253 54.4817 85.4103C55.1506 85.8227 55.4321 85.6578 55.4321 84.8923C55.4331 81.6398 55.4331 78.3872 55.4331 75.1346V74.3049C55.4331 71.343 55.4292 68.383 55.4359 65.4239C55.4378 64.5779 55.0733 63.965 54.3748 63.4931C50.593 60.9321 46.4668 60.6136 42.1964 61.8059C39.7039 62.5013 37.2753 63.4355 34.8466 64.3381C31.8598 65.4488 28.914 66.6728 25.7296 67.1466Z" fill="#108EE9"/>
<path d="M59 24V42.9974C55.9897 40.7362 52.65 38.8899 49.0657 37.5433V24C49.0657 16.2317 42.7683 9.93428 35 9.93428C27.2317 9.93428 20.9343 16.2317 20.9343 24V37.5433C17.35 38.8899 14.0103 40.7362 11 42.9974V24C11 10.7452 21.7452 0 35 0C48.2548 0 59 10.7452 59 24Z" fill="#108EE9"/>
</svg>
