<svg xmlns="http://www.w3.org/2000/svg" width="52" height="56" fill="none"><path fill="#fff" fill-rule="evenodd" d="M26.348 6c3.913 0 7.51 1.7 10.067 4.467a18.273 18.273 0 0 0-3.503-.334 18.93 18.93 0 0 0-10.54 3.2c-1.388.967-2.587 2.067-3.628 3.434-1.862 2.433-3.188 5.333-3.25 8.5-.032 2.866.977 5.466 3.092 7.3.978.833 1.956 1.466 3.218 1.933a9.178 9.178 0 0 0 3.408.467c1.231-.067 2.493-.367 3.503-1.234.568-.466.757-1.133.694-1.766-.063-.734-.41-1.3-1.041-1.534-.789-.3-1.988-.433-2.588.334-.189.266-.157.6.032.9.031.066.095.166.126.2-.19 0-.347-.1-.442-.2-.82-.834.095-1.767.82-2.1 2.304-1.067 6.848.5 5.365 3.833-.662 1.467-2.398 2.133-4.07 2.367-1.231.2-2.462.2-3.598 0h-.031C17.292 34.6 12.148 28.4 12.148 21c0-8.267 6.375-15 14.2-15Z" clip-rule="evenodd"/><path fill="#fff" fill-rule="evenodd" d="M37.992 12.433a15.712 15.712 0 0 1 2.524 8.367c-.347-.367-.694-.7-1.104-.933-2.21-1.367-6.09-1.434-8.425-1-2.336.433-4.513.933-6.564 2.433-2.051 1.467-4.008 4.1-4.26 6.833-.158 2.134.505 3.534 3.03 5 1.072.634 2.618.634 3.723.067.6-.3 1.136-1.267.789-1.867-.316-.566-1.389-.733-1.704.134-.19-.267.126-.834.41-.934.568-.166 1.2-.2 1.704.1.536.367 1.073 1.067.947 1.767-.158.833-.852 1.333-1.578 1.7-.884.467-1.988.6-2.998.567-1.168-.034-2.398-.334-3.44-.934-1.293-.766-2.555-1.766-3.344-3.1-.852-1.366-1.357-3.033-1.357-4.666 0-3.367 1.42-6 3.47-8.467 1.484-1.8 2.999-2.967 5.27-4.167 2.304-1.166 5.775-2.266 8.647-2.266 1.073 0 2.146.2 3.155.6.221.066.6.366 1.105.766Z" clip-rule="evenodd"/><path fill="#fff" fill-rule="evenodd" d="M21.773 31.667c-1.357-1.634-1.105-3.067-.442-4.867 1.01-2.833 3.503-4.4 6.059-5.5.568-.233 2.272-.767 3.692-1.033 1.64-.3 3.155-.167 4.796.066 1.105.167 3.156 1.1 4.008 1.867.536.5.41 1.5.284 2.167-.505 2.233-1.452 4.266-2.777 6 .379-2.467-.663-3.3-2.556-4.134-1.105-.5-2.998-.833-4.292-.866-1.956-.067-4.607.766-5.648 1.933-.757.833-1.2 1.367-1.325 2.467-.095.9.189 1.7.946 2.3.379.266.758.266 1.168.433.22.067.883-.1 1.104-.3.442-.333.316-.933-.063-1.1-.032-.133.347-.033.442.067.852.8.22 1.4-.442 1.733-.726.367-1.578.4-2.335.267-1.389-.234-2.083-.834-2.62-1.5ZM21.781 44.278c.519-1.34 1.008-2.597 1.489-3.857.066-.175.102-.322.356-.323.253-.001.248.166.286.31.472 1.81.94 3.622 1.41 5.436-.93.123-.928.123-1.116-.69-.215-.935-.435-1.869-.758-2.814-.453 1.06-.902 2.12-1.364 3.177-.073.167-.064.448-.318.447-.248-.002-.247-.281-.321-.448-.471-1.058-.928-2.122-1.449-3.323-.283 1.221-.558 2.289-.77 3.368-.115.583-.549.32-.817.31-.435-.015-.11-.34-.082-.47.355-1.619.736-3.233 1.13-4.843.041-.165-.047-.453.323-.458.336-.005.324.253.399.427.462 1.086.908 2.178 1.362 3.267.059.141.136.276.24.484ZM16.66 42.989c0-.09.004-.178 0-.267-.053-1.31-.752-1.981-2.067-1.985-1.18-.004-1.886.72-1.934 1.993-.009.213-.01.428.013.64.132 1.185.846 1.89 1.906 1.894 1.336.005 2.076-.803 2.083-2.276ZM14.656 40c1.957.015 3.102 1.13 3.083 3.004-.019 1.908-1.214 3.019-3.223 2.996-1.782-.02-2.926-1.224-2.916-3.068.009-1.778 1.226-2.945 3.056-2.932ZM45.52 42.953c.002-1.477-.671-2.205-2.051-2.215-1.261-.01-1.953.764-1.957 2.188 0 .142-.001.286.014.426.138 1.28.903 1.97 2.112 1.909 1.2-.06 1.88-.895 1.883-2.308ZM43.452 46c-1.83.001-3.002-1.19-2.995-3.045.007-1.773 1.195-2.953 2.978-2.955 2.008-.002 3.172 1.094 3.162 2.98-.01 1.893-1.182 3.018-3.145 3.02ZM33.021 44.08v-3.45c0-.49.308-.68.805-.524.192.06.135.188.136.298.003 1.749.003 3.497-.002 5.246 0 .11.076.27-.102.318-.199.054-.291-.1-.4-.223-.915-1.027-1.832-2.053-2.75-3.079-.241-.269-.485-.535-.832-.917v1.463c0 .767-.033 1.536.012 2.301.027.454-.244.362-.515.385-.329.029-.443-.055-.438-.402.021-1.66.006-3.319.015-4.978 0-.137-.113-.342.13-.404.21-.053.335.08.464.22 1.016 1.109 2.038 2.212 3.06 3.316.095.105.197.204.417.43ZM11.155 45.823c-.81.257-1.246-.067-1.62-.64-.382-.587-.858-1.114-1.273-1.68-.161-.22-.24-.2-.446-.029-.647.54-.85 1.213-.726 1.998.07.444-.2.433-.523.428-.296-.006-.505.02-.497-.401.03-1.656.03-3.313 0-4.97-.009-.435.196-.421.522-.432.365-.012.52.057.503.458-.035.835-.01 1.672-.01 2.51.22.06.256-.127.336-.218.621-.704 1.23-1.42 1.844-2.13.575-.665.576-.664 1.602-.569-.635.73-1.23 1.445-1.863 2.126-.251.27-.229.439-.012.713.734.926 1.435 1.877 2.163 2.836ZM35.495 42.975c0-.838.013-1.676-.006-2.514-.007-.278.068-.364.364-.36 1.256.015 2.513.012 3.77 0 .27-.002.4.041.392.345-.007.283-.057.412-.394.404-.905-.023-1.811.002-2.717-.014-.294-.005-.411.051-.417.372-.02 1.237-.034 1.236 1.245 1.237.314 0 .629.008.943-.003.242-.01.403-.01.408.319.005.349-.16.368-.434.352-.276-.016-.554-.008-.831-.002-.422.009-.986-.13-1.227.077-.285.246-.072.802-.09 1.223a7.86 7.86 0 0 0 .002 1.122c.046.468-.282.35-.535.359-.253.008-.503.069-.485-.35.037-.855.011-1.711.012-2.567ZM26.23 45.784l-.002-5.568.077-.084c.909-.065.909-.065.909.811 0 1.442-.026 2.885.013 4.326.014.506-.104.73-.649.626-.089-.018-.182-.018-.273-.027l-.076-.084Z" clip-rule="evenodd"/></svg>